<svg xmlns="http://www.w3.org/2000/svg" fill="none" viewBox="0 0 839 369">
    <g filter="url(#a)">
        <path fill="#1E1E1E"
            d="M54.8 220.14c-.15 3.79 1.56 13.46 2.42 17.83a27.52 27.52 0 0 1-3.85 4.8c-1.45 1.29.7 5.42 1.97 7.32l31.81-.57 8.12 12.83 504.54-9.17s129.37 2.91 138.75-2.52c9.38-5.42 11.7-20.55 11.7-20.55l13.14-.24c2.7-.3 9.87-3.38 16.85-13.18 8.71-12.25 6.31-42.96 4.65-47.4-1.65-4.44-9.8-18.49-12.36-29.74-2.06-9.01-4.78-35.93-5.88-48.27-2.29-.66-7.86-1.96-11.86-1.88-4 .07-20.8-2.43-28.72-3.69C701.3 71.8 633.9 41.17 562.62 30.06c-89.1-13.89-141.73-2.42-172.62 4.71-30.89 7.14-88.68 38.42-106.39 47.41-14.17 7.2-29.1 9.38-34.79 9.57-10.05.97-36.62 3.66-62.44 6.66-25.8 2.99-61.54 12.5-76.18 16.89l-21.58-.92c-1.75.11-5.77.57-7.86 1.45-2.08.88-2.74 3.38-2.8 4.52l.3 16.3c-2.18 1.35-8.44 7.61-16.17 21.84-9.67 17.8-5.67 35.07-5.56 41.37.11 6.31-1.56 15.54-1.74 20.28Z" />
        <path fill="#D6DFDD"
            d="M57.22 237.97c-.87-4.37-2.57-14.05-2.42-17.83.17-4.74 1.85-13.97 1.73-20.27-.11-6.31-4.1-23.59 5.56-41.38 7.73-14.23 14-20.5 16.16-21.85l-.3-16.29c.07-1.14.73-3.64 2.82-4.52 2.08-.88 6.1-1.33 7.86-1.45l21.57.92c14.64-4.39 50.37-13.9 76.18-16.9a3729.2 3729.2 0 0 1 62.45-6.65c5.69-.19 20.61-2.37 34.78-9.57 17.71-9 75.5-40.27 106.4-47.4 30.88-7.14 83.5-18.6 172.61-4.72C633.9 41.18 701.3 71.8 726.08 85.71c7.91 1.26 24.73 3.76 28.72 3.69 4-.07 9.58 1.23 11.87 1.89 1.1 12.33 3.81 39.25 5.87 48.26 2.57 11.25 10.7 25.3 12.36 29.74 1.66 4.44 4.06 35.15-4.65 47.4-6.98 9.8-14.14 12.87-16.85 13.19l-13.14.23a8.98 8.98 0 0 1-.15-8.4c2.28-4.52 8.76-53-33.69-74.57-42.45-21.58-86.74 14.98-92.37 37.95-5.62 22.97-5 42.94-5.44 47.41a19.36 19.36 0 0 1-2.24 7.4l-379.35-2.04c-.92-2.35-2.52-8.84-1.6-16 1.15-8.97 4.17-73.95-54.42-87.08-58.6-13.13-101.73 43.38-90.54 80.5 7.66 25.42 10.37 32.98 10.99 33.98h.14c0 .15-.04.17-.14 0l-46.11.83c-1.26-1.9-3.42-6.03-1.97-7.32a27.52 27.52 0 0 0 3.85-4.8Z" />
        <path fill="url(#b)"
            d="m330.21 70.65-.86 24.99c103.78-3.11 318.53-9.62 347.32-10.78-11.1-17.67-45.51-30.71-90.12-40.94-44.61-10.23-115.66-14.2-165.98-5.93-40.25 6.62-74.9 24.67-90.36 32.66Z" />
        <path fill="url(#c)"
            d="M623.6 141.61c-35.33 23.14-39.76 68.8-37.55 88.74l.2 11.3c9.56.27 29.03.53 30.48-.55 1.46-1.08 1.52-8 1.38-11.33-.39-1.83-.73-8.19.97-18.94 2.12-13.45 3.55-36.08 24.01-52.75s59.22-24.73 85.93-1.56c26.7 23.17 24.5 60.54 20.67 67.18-3.82 6.64-.04 12.1 5.95 9.1 6-3 8.12-1.47 12.05-2.33 3.93-.86 16.85-12.92 16.94-22.65.08-9.73 1.03-29.98 1.22-34.2.18-4.2-1.9-3.38-4.07-7.02-2.17-3.64-4.37-8.86-7.15-16.95-2.77-8.1-5.55-30.66-5.78-43.27-.23-12.62-2.33-12.58-5-14.63-2.66-2.06-8.16-.9-15.26-1.04-7.1-.13-17.14-2.84-27.93-3.7-10.8-.85-25.76 14.67-34.4 16.14-6.92 1.17-48.96 1.32-69.12 1.25-3.4.85-8.15 2.52.05 2.37 10.24-.19 59.38-1.34 69.1-1.26 9.74.09 31.25-2.14 43.32-3.15 12.08-1 20.25.16 26.37 4.25 6.12 4.1 4.78 17.26 6.06 29.86 1.28 12.6 7.86 27.72 7.91 30.35.05 2.63 2.19 4.69.1 5.25-2.1.57-1.86-1.01-4.8-3.59-2.94-2.57-16.39-19.42-35.04-33.54-18.66-14.11-62.45-22.26-106.6 6.67Z" />
        <path fill="#A2A2A2"
            d="M52.64 245.25c.05 2.5 1.5 5.08 1.5 5.08 15.78.5 22.93.37 27.34.3 5.52-.1 16.84.74 18.12-1.13 1.28-1.86 1.13-5.13-2.72-14.78-3.86-9.66-8.29-36.4-3.29-50.68 5-14.28 9.84-27.4 35.35-41.53 25.5-14.13 67.36-10.52 87.81 15.5 20.45 26 20.77 57.97 18.27 65.11-2 5.72-.64 13.07.3 16.03l375.41 2.39c3.25.46 9.38-1.54 7.9-13.3-1.83-14.68 2.2-38.4 12.9-57s56.53-43.09 91.95-17.7c35.42 25.37 27.38 65.1 26.65 68.26-.36 1.54-1.75-.11-2.47 4.1s.91 6.56 3.55 7.04c2.64.48 11.27-1.52 15.98-2.92 4.7-1.4 6.77-3.54 9.1-5.95 2.32-2.4 5.58-10.02 4.47-8.87-2.32 2.4-3.87 2.95-7.45 4.46a30.08 30.08 0 0 1-12.04 2.58c-4.16.08-1.7-15.6-2.37-24-.68-8.4-2.12-20.34-8.89-31.26-5.16-8.32-25.34-29.89-54.83-32.5-29.49-2.62-52.58 9.07-70.57 31.89-16.19 20.53-15.23 58.9-16.75 62.07-1.21 2.55-5.2 2.9-7.04 2.76-118.3-.48-355.17-1.65-356.23-2.47-1.34-1.02-1.9-2.85-1.68-5.75.2-2.9 7.34-30.1-10.29-59.75-17.62-29.64-54.14-42.91-87.95-37.57-33.82 5.35-63.03 32.17-67.15 66.15-4.11 33.99 10.84 49.49 8 49.54l-14.98.27c-6.4.12-9.22-1.41-14.22-1.32-2.35.04-3.72 2.43-3.68 4.95Z" />
        <path fill="url(#d)"
            d="M78.63 136.1c1.3-1.33 13.22-10.49 16.07-12.64 2.2-1.67 11.76-5.3 15.64-7.38-5.43-1.27-29.47-1.3-31.01.56-1.54 1.87-2.81 4.26-.7 19.46Z" />
        <path fill="url(#e)" stroke="#D7E0DE" stroke-width="1.05"
            d="M330.95 97.2v.53l.54-.02 174.7-6.59c3.08 3.64 9.19 12.57 11.41 20.43 2.1 7.4 3.75 19.42 4.8 31.75 1.04 12.32 1.47 24.9 1.1 33.43-.74 17.06-4.96 44.72-5.68 48.66-.18 1-.33 1.79-.48 2.43a6.5 6.5 0 0 1-.5 1.44c-.19.32-.4.53-.67.68a3.4 3.4 0 0 1-1.22.34h-.14a138.22 138.22 0 0 1-1.72.03h-4.87a33939.03 33939.03 0 0 1-73.86-.43c-44.12-.3-96.75-.72-131.76-1h-.08a8.99 8.99 0 0 1-6.97-2.35 8.8 8.8 0 0 1-1.35-2.01 38.2 38.2 0 0 1-1.78-3.95 95.98 95.98 0 0 1-3.93-12.9c-2.52-10.63-4.49-25-3.87-41.52.62-16.57 1.72-32.08 3.2-44.21.75-6.07 1.59-11.28 2.5-15.35.94-4.1 1.93-6.96 2.95-8.4.82-1.15 2.88-2.97 5.75-5.2 2.84-2.2 6.44-4.76 10.28-7.4a600.69 600.69 0 0 1 21.19-13.75l.46 25.35Z" />
        <path fill="url(#f)"
            d="M304.03 86.38c2.06-2.35 17.34-10.22 24.72-13.86-.23 6.58-.74 19.89-.94 20.52-.25.8-.77.8-1.56.82-.8.01-18.67.08-20.25-.16-1.58-.23-4.22-.97-4.5-2.02-.28-1.05-.05-2.36 2.53-5.3Z" />
        <path fill="url(#g)"
            d="M321.34 84.22c-.97-7.34 4.53-10.86 7.41-11.7l-1 16.84c.46 1.57.86 4.67-1.24 4.5-2.63-.22-3.95-.46-5.17-9.64Z" />
        <path fill="url(#h)"
            d="m68.2 241.98 9.46-.17c-3.32-9.14-8.76-33.6-3.95-58.28 6-30.87 26.32-41.23 34.64-46.37 8.32-5.15 21.62-10.9 33.13-14.27 11.5-3.37 19.92-3 23.86-3.33a102 102 0 0 1 12.88.03c3.16.2 13.17 1.34 16.6 1.8 3.42.47 2.37.75 10 .87 7.62.13 27.6.55 32.07.47 4.47-.08 26.27-1.26 29.94-1.6 3.68-.32 5.22-2.2 7.04-3.01 1.83-.82 4.45-1.4 7.86-1.46 3.42-.06 50.44-1.97 53.33-2.02 2.9-.05 2.86-1.63-.03-1.58-2.89.06-45.2 1.09-53.33 1.76-8.14.67-108.75 4.08-114.8 3.66-6.06-.41-4.56-4.9-.12-6.57 4.43-1.65 55.1-5.73 58.5-6.32 2.73-.47 8.13-1.2 10.49-1.5 3.39-1.38 8.13-3.88-.06-2.9-10.22 1.25-51.4 5.94-69 7.57-17.57 1.63-68.66 11.24-92.15 49.52-18.79 30.62-12.07 68.56-6.36 83.7Z" />
        <path fill="url(#i)"
            d="M95.08 145.25c-32.17 23.72-25.2 74.06-17.7 96.27l9.45-.17c-1.64-3.39-3.07-10.2-5.62-20.14-2.55-9.94-1.81-27.3-.6-33.37 1.2-6.07 10.73-45.94 63.36-57.14 52.63-11.21 74.32 10.47 89.9 33.97 15.58 23.5 5.5 57.2 9.84 63.96 13.15.55 16.84 1.27 28.22.28-.13-7.1.3-18.46-.72-39.68-1.27-26.53-28.43-60.07-65.65-68.33-37.21-8.26-70.28-5.3-110.48 24.35Z" />
        <path stroke="url(#j)" stroke-width="1.05"
            d="M480.96 34c-15.77.12-57.02 1.03-87.1 9.74-28.36 8.21-52.8 21.37-63.12 27.17l-1.39 24.73" />
        <path fill="url(#k)"
            d="M366.7 55.8c14.42-5.31 36-12.75 45.51-15.02-4.79 1.75-14.22 7.3-13.74 10.24.59 3.67 21.9 4.86 34.8 6.2 12.91 1.34 51.05 2.49 67.1 3.77 16.06 1.29 52.2 8.26 57.22 9.48 5.02 1.22 10.02 1.66 11.04-.2 1.01-1.86-4-3.35-11.13-4.8-7.13-1.44-6.63-3.29-.04-2.36 6.58.93 33.04 10.18 48.57 11.21 15.52 1.03 30.18-2.39 32.8-3.49 2.6-1.1.46-3.42-.1-5.25s-6.94-5.66-14.9-9.46c-7.95-3.8-7.45-5.12-.03-2.1 7.41 3.02 49 20.14 52.87 31.11-7.36.13-232.61 6.24-343.39 9.65l1.5-18.42c1.92-.83 8.78-3.42 14.65-3.95 7.35-.66 17.59-1.63 33.11-.6 15.53 1.03 13.74 3.7 21.87 2.5 8.12-1.2 21.46-4.87 20.91-6.43-.55-1.57-10.27-1.13-21.06-1.72-10.79-.6-34.34-6.74-37.5-7.47-3.17-.73-18.07 3.74-.06-2.9Z" />
        <path fill="url(#l)" stroke="url(#m)" stroke-width=".53"
            d="M733.31 73.75c.14-3.79 5.66-21.13 8.4-29.33.68-1.68 1.59-5.65-.14-8.15-2.16-3.11-2.92-1.26-18.92.35s-38.63.44-40.44 2.57c-1.44 1.71-.52 4.92.12 6.3-.82 3.35-2.33 10.78-1.86 13.71a4.44 4.44 0 0 0 4.02 3.87l37.62 16.4c2.4 1.63 7.76 4.5 10.05 2.98 2.85-1.9.97-3.96 1.15-8.7Z" />
        <path fill="#F7F6F4"
            d="M728.37 80.22c-1.49-.81-8.22-4.05-11.4-5.57-.05-2.37 9.52 3.5 10.29 2.18.76-1.33-8.23-4.32-7.74-5.9.5-1.6 4.7-1.93 8.61-3.58 3.92-1.65 4.42-2.97 5.66-7.2 1.23-4.23 2.3-3.46 1.31-.03a45.84 45.84 0 0 1-3.26 8.74c-1.27 2.39-.95 5.54-.62 9.2.33 3.68-1 3.18-2.85 2.16Z" />
        <path fill="url(#n)" stroke="url(#o)" stroke-width=".53"
            d="m495.44 33.74 7.53 56.12-3.65.07-9.98.18h-.04l-.03.01c-.77.23-1.92.42-2.9.29a2.5 2.5 0 0 1-1.22-.46c-.3-.24-.51-.58-.57-1.1-.03-.33-.02-1.28.04-2.73.06-1.44.16-3.35.28-5.57l.2-3.36c.2-3.78.45-8.11.65-12.46.28-5.71.5-11.44.5-15.98.01-2.27-.03-4.24-.15-5.76a18.91 18.91 0 0 0-.23-1.94 3.62 3.62 0 0 0-.37-1.2 7.33 7.33 0 0 0-2.66-2.25 28.83 28.83 0 0 0-4.26-1.9 43.91 43.91 0 0 0-5.2-1.55l9.94-.18 12.12-.22Z" />
        <path fill="url(#p)" stroke="url(#q)" stroke-width=".53"
            d="M509.05 89.75h.03l.04.01c.17.04.5.08 1 .1.48.02 1.09.03 1.8.02 1.4 0 3.17-.05 5-.1l4.68-.18 4.52-.16-.02-.08a7.42 7.42 0 0 0-.14-.6 30.26 30.26 0 0 0-.56-1.81c-.5-1.47-1.23-3.42-2.1-5.7-.92-2.41-2-5.19-3.16-8.14-1.02-2.6-2.09-5.34-3.15-8.09a347.31 347.31 0 0 1-5.97-16.4 62.2 62.2 0 0 1-1.67-5.92c-.17-.79-.28-1.46-.3-2-.03-.53 0-.99.17-1.29a5.7 5.7 0 0 1 2.22-2.04 17.2 17.2 0 0 1 3.4-1.42 33.55 33.55 0 0 1 3.87-.94l-22.2-.74 8.04 55.56 4.5-.08Z" />
        <circle cx="695.1" cy="216.75" r="65.71" fill="#373938" transform="rotate(-1 695.1 216.75)" />
        <path fill="url(#r)"
            d="M646.05 177.56c-2.82-4.08-.18-9.72 5-14.29 5.17-4.56 17.74-10.3 26.32-12.57a65.11 65.11 0 0 1 31.8-.57c10.3 2.44 20.47 7.09 30.54 17.05 10.17 10.07 16.19 23.1 19.28 34.09 3.09 10.98 1.85 29.4-2.13 41.83s-12.76 21.26-22.62 28.28c-4.93 3.5-14.32 7.88-18.78 7.96-4.47.08-8.65 1.47-11.57.21-2.91-1.26-2.72-5.2-2.5-7.58.22-2.37 4.66-4.02 9.86-7.01 5.2-2.99 13.55-6.55 19.22-12.7 9.33-10.11 12.26-19.68 13.96-27.6 1.7-7.91-.41-22.6-4.26-31.73-3.84-9.13-11.59-15.82-18.25-20.96-6.67-5.13-17.77-8.35-27.77-9.48-10.01-1.13-20.73 2.22-27.23 6.01a59.77 59.77 0 0 0-10.12 7.29c-1.4.46-7.92 5.84-10.75 1.77Z" />
        <path fill="#D9D9D9" fill-rule="evenodd"
            d="M696.01 267.2a50.46 50.46 0 1 0-1.83-100.9 50.46 50.46 0 0 0 1.83 100.9Zm-6.07-67.2c.72 1.48 2.93 1 3-.63l.82-22.97a1.58 1.58 0 0 0-1.9-1.6L681 177.09a1.58 1.58 0 0 0-1.1 2.23L689.95 200Zm10.68-.02c-.83 1.42-3 .79-2.94-.85l.9-22.97a1.58 1.58 0 0 1 2.01-1.45l10.66 3.1a1.58 1.58 0 0 1 .92 2.3l-11.55 19.87Zm4.34 1.9c-.71 1.49 1.04 2.93 2.36 1.96l18.47-13.68c.83-.6.86-1.83.07-2.48l-8.56-7.06a1.58 1.58 0 0 0-2.43.53l-9.91 20.74Zm7.08 9.18c-1.62.3-2.55-1.77-1.26-2.79l18.05-14.22a1.58 1.58 0 0 1 2.42.59l4.56 10.11a1.58 1.58 0 0 1-1.16 2.2l-22.61 4.11Zm.7 4.97c-1.61.35-1.68 2.62-.1 3.06l22.14 6.19a1.58 1.58 0 0 0 2-1.48l.32-11.09a1.58 1.58 0 0 0-1.92-1.58l-22.45 4.9Zm-2.77 10.25c-1.23-1.1-.17-3.1 1.43-2.7l22.31 5.49a1.58 1.58 0 0 1 1.02 2.26l-5.17 9.82a1.58 1.58 0 0 1-2.45.44l-17.14-15.31Zm-3.25 3.67c-1.27-1.04-3.09.31-2.45 1.83l8.86 21.2a1.58 1.58 0 0 0 2.4.66l8.9-6.63a1.58 1.58 0 0 0 .06-2.48l-17.77-14.58Zm-9.42 4.16c.06-1.64 2.28-2.1 3-.62l9.91 20.73a1.58 1.58 0 0 1-1.1 2.23l-10.87 2.23a1.58 1.58 0 0 1-1.9-1.6l.96-22.97Zm-5.26-.55c.05-1.65-2.13-2.26-2.95-.84l-11.4 19.96a1.58 1.58 0 0 0 .94 2.3L689.3 258a1.58 1.58 0 0 0 2-1.47l.74-22.97Zm-9.1-4.55c1.37-.92 3.06.59 2.3 2.04l-10.72 20.34a1.58 1.58 0 0 1-2.44.44l-8.28-7.39a1.58 1.58 0 0 1 .16-2.48l18.99-12.94Zm-3.02-4.34c1.3-1 .39-3.08-1.23-2.8l-22.65 3.92a1.58 1.58 0 0 0-1.17 2.19l4.47 10.15a1.58 1.58 0 0 0 2.41.61l18.17-14.07Zm-1.7-9.86c1.55.51 1.39 2.77-.23 3.05l-22.65 3.9a1.58 1.58 0 0 1-1.84-1.66l.8-11.07a1.58 1.58 0 0 1 2.07-1.38l21.84 7.16Zm.69-4.18c1.58.43 2.69-1.55 1.49-2.67l-16.78-15.71a1.58 1.58 0 0 0-2.45.38l-5.4 9.69a1.58 1.58 0 0 0 .96 2.29l22.18 6.02Zm7.03-8.72c.72 1.48-1.01 2.94-2.34 1.97l-18.58-13.53a1.58 1.58 0 0 1-.09-2.48l8.5-7.13a1.58 1.58 0 0 1 2.44.52l10.07 20.65Zm8.84 26.42a11.56 11.56 0 1 0-.42-23.13 11.56 11.56 0 0 0 .42 23.13Z"
            clip-rule="evenodd" />
        <circle cx="165.19" cy="218.49" r="69.39" fill="url(#s)" transform="rotate(-1 165.19 218.5)" />
        <path fill="#D9D9D9" fill-rule="evenodd"
            d="M166.1 268.95a50.46 50.46 0 1 0-1.83-100.91 50.46 50.46 0 0 0 1.83 100.9Zm-6.07-67.21c.72 1.47 2.93 1 3-.64l.82-22.96a1.58 1.58 0 0 0-1.9-1.6l-10.86 2.29a1.58 1.58 0 0 0-1.1 2.23l10.04 20.68Zm10.68-.02c-.83 1.42-3 .79-2.94-.85l.9-22.97a1.58 1.58 0 0 1 2.01-1.45l10.66 3.1a1.58 1.58 0 0 1 .92 2.3l-11.55 19.87Zm4.34 1.9c-.71 1.49 1.04 2.93 2.36 1.95l18.47-13.67c.83-.6.86-1.83.07-2.48l-8.56-7.06a1.58 1.58 0 0 0-2.42.53l-9.92 20.74Zm7.08 9.18c-1.62.3-2.55-1.77-1.26-2.8l18.05-14.22a1.58 1.58 0 0 1 2.42.6l4.56 10.11a1.58 1.58 0 0 1-1.16 2.2l-22.61 4.1Zm.7 4.97c-1.61.35-1.68 2.62-.1 3.06l22.14 6.18a1.58 1.58 0 0 0 2-1.47l.32-11.09a1.58 1.58 0 0 0-1.92-1.59l-22.45 4.91Zm-2.77 10.25c-1.22-1.1-.17-3.1 1.43-2.7l22.31 5.49a1.58 1.58 0 0 1 1.02 2.26l-5.17 9.82a1.58 1.58 0 0 1-2.45.44l-17.14-15.31Zm-3.25 3.67c-1.27-1.05-3.09.3-2.45 1.82l8.87 21.2a1.58 1.58 0 0 0 2.4.66l8.9-6.62a1.58 1.58 0 0 0 .05-2.49l-17.77-14.57Zm-9.42 4.16c.07-1.65 2.29-2.1 3-.62l9.91 20.73a1.58 1.58 0 0 1-1.1 2.23l-10.87 2.23a1.58 1.58 0 0 1-1.9-1.61l.96-22.96Zm-5.26-.55c.05-1.65-2.13-2.26-2.95-.84l-11.4 19.96a1.58 1.58 0 0 0 .94 2.3l10.67 3.01a1.58 1.58 0 0 0 2-1.46l.74-22.97Zm-9.09-4.55c1.36-.92 3.05.59 2.28 2.04l-10.7 20.33a1.58 1.58 0 0 1-2.45.45l-8.28-7.4a1.58 1.58 0 0 1 .16-2.47l18.99-12.95Zm-3.03-4.34c1.3-1 .39-3.08-1.23-2.8l-22.65 3.91a1.58 1.58 0 0 0-1.17 2.2l4.47 10.15a1.58 1.58 0 0 0 2.41.61l18.17-14.07Zm-1.7-9.86c1.55.51 1.39 2.77-.23 3.05l-22.65 3.9a1.58 1.58 0 0 1-1.84-1.66l.8-11.07a1.58 1.58 0 0 1 2.07-1.38l21.84 7.16Zm.69-4.18c1.58.43 2.69-1.55 1.49-2.68L133.72 194a1.58 1.58 0 0 0-2.46.38l-5.4 9.69c-.5.9-.03 2.02.96 2.29l22.18 6.02Zm7.03-8.72c.72 1.48-1.01 2.93-2.34 1.97l-18.58-13.53a1.58 1.58 0 0 1-.09-2.48l8.5-7.13a1.58 1.58 0 0 1 2.44.52l10.07 20.65Zm8.84 26.41a11.56 11.56 0 1 0-.42-23.12 11.56 11.56 0 0 0 .42 23.12Z"
            clip-rule="evenodd" />
        <path fill="url(#t)"
            d="M119.84 180.28c-2.83-4.08-.18-9.72 5-14.29 5.17-4.56 17.74-10.3 26.32-12.57a65.11 65.11 0 0 1 31.8-.57c10.3 2.44 20.47 7.09 30.54 17.06 10.17 10.06 16.19 23.1 19.28 34.08 3.09 10.98 1.85 29.4-2.13 41.84-3.98 12.42-12.76 21.26-22.62 28.27-4.93 3.5-14.32 7.88-18.78 7.96-4.47.09-8.65 1.48-11.57.21-2.91-1.26-2.72-5.2-2.5-7.57.22-2.37 4.66-4.03 9.86-7.02 5.2-2.98 13.55-6.55 19.22-12.7 9.32-10.1 12.26-19.68 13.96-27.6 1.7-7.91-.41-22.6-4.26-31.72-3.84-9.13-11.59-15.83-18.25-20.96-6.67-5.14-17.77-8.35-27.78-9.49-10-1.13-20.72 2.22-27.23 6.02a59.77 59.77 0 0 0-10.12 7.28c-1.39.46-7.92 5.85-10.74 1.77Z" />
    </g>
    <defs>
        <linearGradient id="b" x1="464.39" x2="465.47" y1="33.78" y2="93.17" gradientUnits="userSpaceOnUse">
            <stop offset=".45" stop-color="#22282B" />
            <stop offset="1" stop-color="#121817" />
        </linearGradient>
        <linearGradient id="c" x1="584.11" x2="796.33" y1="242.43" y2="131.59" gradientUnits="userSpaceOnUse">
            <stop stop-color="#A4A4A2" />
            <stop offset="1" stop-color="#E7FFFE" />
        </linearGradient>
        <linearGradient id="d" x1="110.48" x2="73.74" y1="115.65" y2="118.69" gradientUnits="userSpaceOnUse">
            <stop offset=".58" stop-color="#E5E6DF" />
            <stop offset="1" stop-color="#DCD6CB" />
        </linearGradient>
        <linearGradient id="e" x1="402.23" x2="405.19" y1="69.61" y2="232.81" gradientUnits="userSpaceOnUse">
            <stop stop-color="#D8E1DF" />
            <stop offset=".45" stop-color="#D6DFDD" />
            <stop offset=".85" stop-color="#C6CAC9" />
            <stop offset="1" stop-color="#BCBDBD" />
        </linearGradient>
        <linearGradient id="g" x1="324.9" x2="325.28" y1="72.59" y2="93.89" gradientUnits="userSpaceOnUse">
            <stop stop-color="#D2F5F8" />
            <stop offset="1" stop-color="#E1EBE9" />
        </linearGradient>
        <linearGradient id="h" x1="292.36" x2="67.61" y1="114.19" y2="244.45" gradientUnits="userSpaceOnUse">
            <stop stop-color="#F7F6EF" />
            <stop offset=".52" stop-color="#D4D3CC" />
            <stop offset="1" stop-color="#B4B6A9" />
        </linearGradient>
        <linearGradient id="i" x1="275.6" x2="62.19" y1="170.63" y2="201.58" gradientUnits="userSpaceOnUse">
            <stop stop-color="#E7F1EF" />
            <stop offset="1" stop-color="#ABABAB" />
        </linearGradient>
        <linearGradient id="j" x1="472.54" x2="329.67" y1="33.64" y2="84.33" gradientUnits="userSpaceOnUse">
            <stop />
            <stop offset=".44" stop-color="#E7E7E7" />
            <stop offset="1" stop-color="#8F8F8F" />
        </linearGradient>
        <linearGradient id="k" x1="515.49" x2="513.02" y1="97.26" y2="33.69" gradientUnits="userSpaceOnUse">
            <stop stop-color="#252B2A" />
            <stop offset="1" stop-color="#3C464B" />
        </linearGradient>
        <linearGradient id="l" x1="684.6" x2="734.24" y1="29.52" y2="84.87" gradientUnits="userSpaceOnUse">
            <stop stop-color="#DAE0DF" />
            <stop offset="1" stop-color="#DCE3DF" />
        </linearGradient>
        <linearGradient id="m" x1="692.74" x2="734.73" y1="28.85" y2="83.03" gradientUnits="userSpaceOnUse">
            <stop stop-color="#DFE1DE" />
            <stop offset="1" stop-color="#F5F5F5" />
        </linearGradient>
        <linearGradient id="n" x1="487.56" x2="488.56" y1="35.47" y2="90.69" gradientUnits="userSpaceOnUse">
            <stop stop-color="#101615" />
            <stop offset=".5" stop-color="#000405" />
            <stop offset=".75" stop-color="#000405" />
            <stop offset="1" stop-color="#111716" />
        </linearGradient>
        <linearGradient id="o" x1="487.56" x2="488.56" y1="35.47" y2="90.69" gradientUnits="userSpaceOnUse">
            <stop stop-color="#020809" />
            <stop offset="1" stop-color="#83ABA9" />
        </linearGradient>
        <linearGradient id="p" x1="507" x2="508.01" y1="35.11" y2="90.34" gradientUnits="userSpaceOnUse">
            <stop stop-color="#101615" />
            <stop offset=".5" stop-color="#000405" />
            <stop offset=".75" stop-color="#000405" />
            <stop offset="1" stop-color="#111716" />
        </linearGradient>
        <linearGradient id="q" x1="507" x2="508.01" y1="35.11" y2="90.34" gradientUnits="userSpaceOnUse">
            <stop stop-color="#020809" />
            <stop offset="1" stop-color="#83ABA9" />
        </linearGradient>
        <linearGradient id="r" x1="673.91" x2="797.25" y1="208.2" y2="167.58" gradientUnits="userSpaceOnUse">
            <stop stop-color="#373938" />
            <stop offset="1" stop-color="#858585" />
        </linearGradient>
        <linearGradient id="t" x1="147.7" x2="271.04" y1="210.92" y2="170.31" gradientUnits="userSpaceOnUse">
            <stop stop-color="#373938" />
            <stop offset="1" stop-color="#858585" />
        </linearGradient>
        <radialGradient id="f" cx="0" cy="0" r="1" gradientTransform="matrix(-27 8 -6 -21 326.07 84.14)"
            gradientUnits="userSpaceOnUse">
            <stop offset=".51" stop-color="#E1EAE8" />
            <stop offset=".99" stop-color="#7F8483" />
        </radialGradient>
        <radialGradient id="s" cx="0" cy="0" r="1" gradientTransform="matrix(0 69 -69 0 165.19 218.5)"
            gradientUnits="userSpaceOnUse">
            <stop />
            <stop offset="1" stop-color="#3E3E3E" />
        </radialGradient>
        <filter id="a" width="843.17" height="379.81" x="-3.08" y="-5.33" color-interpolation-filters="sRGB"
            filterUnits="userSpaceOnUse">
            <feFlood flood-opacity="0" result="BackgroundImageFix" />
            <feColorMatrix in="SourceAlpha" result="hardAlpha" values="0 0 0 0 0 0 0 0 0 0 0 0 0 0 0 0 0 0 127 0" />
            <feOffset dy="28.51" />
            <feGaussianBlur stdDeviation="25.92" />
            <feComposite in2="hardAlpha" operator="out" />
            <feColorMatrix values="0 0 0 0 0 0 0 0 0 0 0 0 0 0 0 0 0 0 0.25 0" />
            <feBlend in2="BackgroundImageFix" result="effect1_dropShadow_40_860" />
            <feBlend in="SourceGraphic" in2="effect1_dropShadow_40_860" result="shape" />
        </filter>
    </defs>
</svg>