<svg xmlns="http://www.w3.org/2000/svg" fill="none" viewBox="0 0 512 215">
    <path fill="#fff" fill-rule="evenodd"
        d="m61.59 82.83 55.77-68.04c3.35-4.34 13.98-13.24 29.75-14.13 19.7-1.12 29.74 6.32 33.09 8.92 2.68 2.09 65.8 57.88 97.04 85.52 6.32 5.2 22.01 12.5 34.2 0 7.46-7.64 8.07-16.7 8.7-26.14.66-9.86 1.35-20.13 9.9-29.63 14.82-16.47 31.1-11.35 42.9-7.64 1.51.48 2.96.94 4.32 1.32 9.52 2.67 29 9.54 37.55 12.64 9.42 2.85 28.56 12.2 29.75 26.77 1.19 14.58-5.46 23.92-8.93 26.77l-24.54 30.49c-1.24 1.73-2.97 6.02 0 9.3 2.98 3.27 8.93 1.36 11.53 0l27.14-34.21c2.36-3.22 9.67-9.67 20.08-9.67 10.56 0 15.73 5.14 20.88 10.26a91.54 91.54 0 0 0 5.19 4.84c7.03 6.15 18.68 16.34 15.57 28.77-3.34 13.39-16.73 26.78-24.9 31.98-6.55 4.17-41.15 22.06-57.64 30.49a49.56 49.56 0 0 1-15.99 6.32c-7.43 1.49-47.71 5.08-66.92 6.7-5.08-.13-18.3-1.64-30.5-6.7-12.19-5.06-23.66-15.24-27.88-19.7L164.95 82.08c-2.85-2.6-10.4-7.74-17.84-7.44-7.44.3-15.25 7.07-18.22 10.41L45.97 186.2c-6.57 5.7-23.35 13.69-37.92 0-14.58-13.68-6.08-31.23 0-38.3l53.54-65.06Zm17.2 33.75-46.1 57.45c-1.92 1.86-6.66 4.65-10.23.93a7.93 7.93 0 0 1-1.3-9.67l109.5-135.34c2.66-3.03 9.93-9.22 17.66-9.67 7.74-.44 15.74 3.9 18.78 6.14l97.97 85.14c8.55 6.76 30.56 17.37 50.2 5.77 23.4-13.84 23.8-33.93 23.96-41.4 0-.36 0-.69.02-.99l.03-1.53c.14-6.75.37-17.62 7.78-22.26 6.4-4.02 42.94 7.74 60.42 14.12 5.39 2.11 16.4 7.63 17.28 12.83.9 5.2-2.1 9.11-3.71 10.41l-24.54 29.75c-5.58 8.18-12.24 27.73 5.76 40.52 18 12.8 34.15-3.22 39.97-12.82l20.64-26.03c.3-.87 1.78-2.6 5.2-2.6s5.27 1.73 5.76 2.6l15.25 11.9c1.49 1.24 4.2 4.42 3.16 7.25-1.3 3.53-11.34 13.57-15.43 15.43-3.27 1.49-15.37 8.18-21 11.34L419.74 185c-2.86 1.8-10.56 5.54-18.6 6.13-8.03.6-35.32 2.85-47.96 3.9-4.65.44-15.95.64-23.98-2.04-8.03-2.68-17.6-9.17-21.38-12.08L177.7 67.88c-3.72-4.15-15.62-12.24-33.47-11.34-16.46.82-25.33 10.72-31.28 17.36l-1.44 1.6-32.72 41.08Z"
        clip-rule="evenodd" />
</svg>