<svg xmlns="http://www.w3.org/2000/svg" stroke-miterlimit="10" clip-rule="evenodd" viewBox="0 0 577.29 481.89">
    <path
        d="M223.53 31.42a31.9 31.9 0 0 0-8.36 1.29c-5.6 1.6-11.24 4.86-13.63 10.78l-8.64 20.28-.01.04C154.93 158.1 124.9 230.25 86.1 324.6c-13.76 33.46-7.2 57.46 4.99 71.18 9 10.13 17 17.69 29.64 21.98 12.65 4.29 29.46 5.38 56.75 4.02 7.16-.37 15.92-2.95 22.11-10.24 6.2-7.28 9.22-18.88 5.99-35.56-6.17-31.88-10.69-54.87-16.99-93.94-1.02-6.34-.62-10.7.59-13.4 1.2-2.72 3.05-4.27 6.73-5.42 3.73-1.18 6.3-1.19 8.57-.24 2.26.95 4.66 3.13 7.25 7.63 1.67 2.9 3 5.99 5.56 8.56a9.37 9.37 0 0 0 5.24 2.75c2.16.3 4.35-.28 6.4-1.37 34.63-18.34 80-40.65 151.88-46.3 24.17-1.9 33.22-1.7 58.1.66 8.71.83 15.43 2.26 19.85 4.7 4.42 2.46 6.86 5.56 8 11.55.66 3.47.65 7.36-1.31 11.19-1.96 3.82-5.99 7.9-14.51 11.34a143.72 143.72 0 0 1-30.42 8.52c-8.22 1.42-14.51 1.88-19.67 3.76-11.38 4.16-17.7 9.3-21.08 13.95a18.96 18.96 0 0 0-3.1 6.33c-.23.91-.35 1.72-.39 2.45-.03.73-.12 1.18.27 2.34l-.21-1.34c-.1 4.72 2.14 9.04 5.3 13.04 3.17 4 7.43 7.76 12.24 11.22 9.61 6.92 21.41 12.6 31.46 15.08 14.89 3.69 26.47 4.93 35.58 3.54 9.1-1.39 15.93-5.9 19.32-12.88 25.01-51.57 32.55-54.28 49.37-80.59 13.9-21.74 6.78-44.02-2.18-56.95-12.3-17.75-31.65-21.06-42.97-21.63-18.23-.9-34.48-1.47-53.52-2.09-13.18-.42-25.86 4.44-35.07 8.77-6.6 3.1-24.6 14.79-27.2 16.6l-.01.01c-11.94 8.35-30.93 13.28-48.52 9.64-27.79-5.72-42.45-12.79-69.73-11.2-18.98 1.12-36 8.85-71.79 20.2-3.4 1.09-8.36 2.1-12.44 1.43-4.08-.67-7.24-2.33-9.27-8.23-1.16-3.37-.56-6.64 1.14-9.57a15 15 0 0 1 7.23-6.32c7.62-2.85 17.4-5.63 25.95-8.5 4.27-1.42 8.24-2.87 11.59-4.44 3.34-1.57 6.12-3.08 8.1-5.69 7.26-9.63 6.92-19.46 6.95-30.46.04-11 .38-23.9 8.14-42.62 2.36-5.7 6.82-15.93 10.9-25.6 4.08-9.66 7.7-18.27 8.81-22.81 1.32-5.38-.09-11.06-2.73-15.95-2.65-4.9-6.61-9.18-11.79-11.08a21.49 21.49 0 0 0-7.67-1.21zm.13 8.1c1.99 0 3.72.22 4.78.61 2.56.95 5.59 3.83 7.5 7.38 1.93 3.56 2.66 7.62 2.02 10.25-.62 2.5-4.36 12-8.42 21.6-4.05 9.6-8.5 19.78-10.93 25.65-8.22 19.87-8.7 34.48-8.73 45.66-.04 11.17.32 18.15-5.35 25.66-.36.47-2.26 1.93-5.1 3.26-2.86 1.34-6.6 2.72-10.75 4.11-8.27 2.77-18.09 5.56-26.2 8.58a22.36 22.36 0 0 0-11.36 9.82 19.56 19.56 0 0 0-1.77 16.17c2.85 8.32 9.33 12.5 15.53 13.52 6.2 1.03 12.14-.4 16.16-1.69 36.07-11.44 52.8-18.83 69.83-19.84 25.74-1.5 39.16 5.17 67.65 11.05 20.05 4.14 40.8-1.19 54.72-10.92.69-.48 21.92-14 26.04-15.93 8.7-4.09 20.4-8.37 31.4-8.01 19.02.62 35.23 1.19 53.38 2.09 10.26.5 26.47 3.28 36.8 18.19 7.69 11.1 13.93 29.45 2 48.08-16.35 25.6-24.57 29.37-49.82 81.4-2.25 4.64-5.98 7.35-13.33 8.47-7.35 1.12-18.12.15-32.45-3.4-8.65-2.14-19.96-7.51-28.72-13.8-4.37-3.16-8.12-6.54-10.62-9.7-2.5-3.16-3.62-6-3.58-7.91l.01-.69-.06-.19c.01-.15.04-.37.13-.73.21-.82.7-2.08 1.82-3.63 2.25-3.09 7.07-7.38 17.35-11.13 3.36-1.23 9.75-1.92 18.29-3.4 8.54-1.46 19.3-3.84 32.04-8.98 9.8-3.95 15.67-9.31 18.65-15.11 2.97-5.8 2.93-11.72 2.05-16.34-1.5-7.84-5.82-13.63-11.98-17.04-6.16-3.41-13.83-4.8-22.98-5.67-25.03-2.37-35.1-2.59-59.47-.67-73.27 5.76-120.19 28.77-155 47.2-1.06.57-1.46.53-1.56.51-.1-.01-.21 0-.68-.48-.94-.93-2.44-3.69-4.28-6.9-3.11-5.38-6.68-9.15-11.1-11-4.41-1.86-9.24-1.53-14.06-.03-5.22 1.64-9.5 4.96-11.65 9.81-2.15 4.85-2.33 10.74-1.17 17.93 6.32 39.17 10.86 62.31 17.03 94.18 2.94 15.14.14 23.74-4.22 28.86-4.36 5.13-10.87 7.15-16.42 7.42-26.9 1.35-42.81.12-53.78-3.6-10.96-3.72-17.47-9.85-26.23-19.72-10.12-11.4-16.5-31.38-3.57-62.8 38.8-94.33 68.82-166.5 106.78-260.8l.02-.06.01-.02 8.64-20.27v-.03c1.06-2.6 4.3-4.9 8.43-6.1a23.9 23.9 0 0 1 6.28-.86z"
        color="#fff" stroke="white" stroke-width="10" />
</svg>