<svg width="208" height="65" viewBox="0 0 208 65" fill="none" xmlns="http://www.w3.org/2000/svg">
    <path fill-rule="evenodd" clip-rule="evenodd"
        d="M108.912 16.4799C106.23 14.7327 102.542 14.0564 96.1156 14.0564V14H78.96V64.7243H99.5243C104.665 64.7243 107.627 64.048 110.142 62.3572C113.383 60.1591 115.283 55.9885 115.283 51.2542C115.283 47.5344 114.109 44.6037 111.874 42.462C110.309 40.9402 108.912 40.2639 105.839 39.5876C108.521 38.7986 109.639 38.1222 111.092 36.6005C113.383 34.3461 114.5 31.359 114.5 27.8083C114.5 22.9613 112.377 18.6215 108.912 16.4799ZM94.1597 35.0788H91.1421V23.2995H94.048C99.7479 23.2995 102.095 25.0466 102.095 29.1609C102.095 33.3316 99.7479 35.0788 94.1597 35.0788ZM95.6126 55.9321H91.1421V43.9837H93.9362C97.6244 43.9837 98.8538 44.1528 100.195 44.8855C102.039 45.9 102.933 47.6471 102.933 50.0706C102.933 54.1849 100.754 55.9321 95.6126 55.9321ZM37.5522 54.8049L32.3552 64.7806H0L21.0672 24.0321H2.4029L7.59985 14.0563H39.9551L18.9437 54.8049H37.5522ZM56.3283 34.346H72.9253V44.3218H56.3283V54.8049H72.9253V64.7806H44.1461V14.0563H72.9253V24.0321H56.3283V34.346ZM132.104 64.7806H119.978V14.0563H136.239C142.889 14.0563 147.695 15.2962 150.992 17.8324C154.456 20.5941 156.412 25.1029 156.412 30.6826C156.412 38.4604 153.171 43.5328 146.689 46.1254L157.753 64.7243H143.112L132.104 45.1109V64.7806ZM136.127 38.2349C141.101 38.2349 144.118 35.6423 144.118 31.2462C144.118 27.0756 141.157 24.2012 136.91 24.2012H132.216V38.2913H136.127V38.2349ZM206.425 64.7806H193.181L190.108 54.8049H173.79L170.661 64.7806H157.808L174.405 14.0563H189.94L206.425 64.7806ZM181.949 28.5973L176.92 44.8291H186.978L181.949 28.5973Z"
        fill="white" />
</svg>