<svg xmlns="http://www.w3.org/2000/svg" fill="none" viewBox="0 0 731 816">
   <g opacity=".5">
      <path fill="url(#a)"
         d="M311.86 246.4h139.96l-57.23-57.22-.23-.28h-73.6a94.64 94.64 0 0 0 85.73-94.25C406.5 42.41 364.15 0 311.86 0v189.18h-.05L154.6 32.36a283.68 283.68 0 0 0-49.03 32.3l148.84 148.29v325.63l114.9 114.9v-81.22l-57.46-57.5V246.4Z" />
      <path fill="url(#b)" d="m369.33 246.76-.28 277.6h57.41l.31-219.84-57.44-57.76Z" />
      <path fill="url(#c)" d="m509.06 304.6 57.43 57.45h-82.32L426.8 304.6h82.27Z" />
      <path fill="url(#d)"
         d="M196.94 484.51V237.25l-132-132.02a286.16 286.16 0 0 0-32.36 48.91l106.9 106.92v81.27L9.76 212.56A286.86 286.86 0 0 0 0 284.11s190.5 193.72 196.94 200.4Z" />
      <path fill="url(#e)" d="m484.28 362.12 57.46 57.47v105.16h-57.46V362.12Z" />
      <path fill="url(#f)"
         d="M656.66 452.12H599.2v72.64h-57.46c0 52.27 42.36 94.68 94.63 94.68 52.23 0 94.63-42.4 94.63-94.68l-74.34-72.64Z" />
      <path fill="url(#g)" d="M1 447.63v-81.26l368.35 368.36V816L1 447.63Z" />
   </g>
   <defs>
      <linearGradient id="a" x1="-121.52" x2="715.3" y1=".02" y2="730.54" gradientUnits="userSpaceOnUse">
         <stop offset=".3" stop-color="#fff" stop-opacity="0" />
         <stop offset="1" stop-color="#8D95A3" />
      </linearGradient>
      <linearGradient id="b" x1="-121.52" x2="715.3" y1=".02" y2="730.54" gradientUnits="userSpaceOnUse">
         <stop offset=".3" stop-color="#fff" stop-opacity="0" />
         <stop offset="1" stop-color="#8D95A3" />
      </linearGradient>
      <linearGradient id="c" x1="-121.52" x2="715.3" y1=".02" y2="730.54" gradientUnits="userSpaceOnUse">
         <stop offset=".3" stop-color="#fff" stop-opacity="0" />
         <stop offset="1" stop-color="#8D95A3" />
      </linearGradient>
      <linearGradient id="d" x1="-121.52" x2="715.3" y1=".02" y2="730.54" gradientUnits="userSpaceOnUse">
         <stop offset=".3" stop-color="#fff" stop-opacity="0" />
         <stop offset="1" stop-color="#8D95A3" />
      </linearGradient>
      <linearGradient id="e" x1="-121.52" x2="715.3" y1=".02" y2="730.54" gradientUnits="userSpaceOnUse">
         <stop offset=".3" stop-color="#fff" stop-opacity="0" />
         <stop offset="1" stop-color="#8D95A3" />
      </linearGradient>
      <linearGradient id="f" x1="-121.52" x2="715.3" y1=".02" y2="730.54" gradientUnits="userSpaceOnUse">
         <stop offset=".3" stop-color="#fff" stop-opacity="0" />
         <stop offset="1" stop-color="#8D95A3" />
      </linearGradient>
      <linearGradient id="g" x1="-121.52" x2="715.3" y1=".02" y2="730.54" gradientUnits="userSpaceOnUse">
         <stop offset=".3" stop-color="#fff" stop-opacity="0" />
         <stop offset="1" stop-color="#8D95A3" />
      </linearGradient>
   </defs>
</svg>